<svg width="204" height="80" viewBox="0 0 204 80" fill="none" xmlns="http://www.w3.org/2000/svg">
<path d="M72.7463 41.151C72.7463 41.1265 72.7463 41.102 72.7463 41.102C72.7463 41.004 72.7463 40.906 72.7463 40.7836C72.7463 40.6856 72.7463 40.6121 72.7463 40.5141C72.7463 40.2202 72.7463 39.9262 72.722 39.6078C72.722 39.3629 72.6977 39.1179 72.6735 38.8975C72.6735 38.7505 72.6492 38.6035 72.6492 38.4566C71.4849 25.695 60.8604 15.6523 48.0043 15.6523H25.2271H25.2029H16.0823C1.62521 15.6523 8.65969 -1.22441 0 0.0982911C0.0485137 6.98123 0.145541 35.9826 0.145541 40.808C0.145541 54.6474 11.3522 65.9638 25.0573 65.9638H47.98C47.98 65.9638 47.98 65.9638 48.0043 65.9638C59.7446 65.9638 63.3589 73.0672 59.5748 75.9821C55.8878 78.8234 62.0005 84.4327 67.7736 73.6796C73.2799 63.3919 72.7705 50.3119 72.7463 41.151ZM47.1553 52.6634H25.882C19.357 52.6634 14.0447 47.2991 14.0447 40.7101C14.0447 38.5791 14.0205 33.1903 13.9962 27.3361C17.4649 28.2424 21.3945 28.7568 25.882 28.7568H26.0276H47.1796C48.2711 28.7568 49.3142 28.9282 50.3087 29.1977C55.3056 30.5939 58.9926 35.2233 58.9926 40.7101C58.9926 41.053 58.9684 41.4204 58.9441 41.7633C58.9684 47.8624 54.02 52.7613 48.0043 52.6634C47.7132 52.6634 47.4464 52.6634 47.1553 52.6634Z" fill="#00BDBC"/>
<path d="M96.2269 6.07462C93.025 6.07462 90.7206 6.98091 89.2894 8.76901C87.8583 10.5571 87.1548 13.0065 87.1548 16.1173C87.1548 17.636 87.3246 19.0077 87.6885 20.2324C88.0523 21.4571 88.5617 22.5104 89.2652 23.4167C89.9686 24.2985 90.8419 24.9843 91.9092 25.4742C92.9765 25.9641 94.1893 26.209 95.5962 26.209C96.3482 26.209 97.0031 26.1846 97.561 26.1601C98.0947 26.1356 98.5798 26.0621 98.9922 25.9886V16.7297C98.9922 15.9214 99.6471 15.26 100.448 15.26H104.426C105.226 15.26 105.881 15.9214 105.881 16.7297V29.4668C105.881 30.1282 105.444 30.6915 104.838 30.863C104.086 31.0834 103.116 31.3039 101.927 31.5488C100.108 31.9163 97.8521 32.1122 95.1838 32.1122C92.9037 32.1122 90.8176 31.7448 88.9498 31.0345C87.082 30.3241 85.5054 29.2953 84.1712 27.9237C82.8614 26.552 81.8183 24.8863 81.1149 22.9023C80.3872 20.9182 80.0476 18.6403 80.0476 16.0928C80.0476 13.5209 80.4357 11.2429 81.2361 9.2589C82.0366 7.27485 83.1039 5.58473 84.4866 4.21304C85.8692 2.84136 87.4944 1.78809 89.3622 1.07776C91.23 0.367417 93.219 0 95.3294 0C96.7605 0 98.0704 0.0979778 99.2347 0.293933C100.399 0.489889 101.394 0.710339 102.218 0.955283C103.043 1.20023 103.746 1.46967 104.28 1.73911C104.28 1.73911 104.28 1.73911 104.304 1.73911C104.959 2.05753 105.275 2.84135 105.032 3.55169L104.013 6.41754C103.746 7.20136 102.873 7.59328 102.121 7.27485C101.539 7.0299 100.908 6.80945 100.254 6.6135C98.9921 6.24608 97.658 6.07462 96.2269 6.07462Z" fill="#FCC705"/>
<path d="M133.122 31.5489C132.879 31.5489 132.661 31.4019 132.588 31.157C132.273 30.2017 131.957 29.2464 131.618 28.2421C131.302 27.3358 130.987 26.454 130.696 25.5477C130.55 25.1313 130.162 24.8619 129.75 24.8619H119.271C118.834 24.8619 118.446 25.1313 118.325 25.5477C118.01 26.454 117.718 27.3358 117.403 28.2421C117.063 29.2464 116.748 30.2017 116.433 31.1325C116.36 31.3529 116.142 31.5244 115.899 31.5244H109.956C109.568 31.5244 109.301 31.1325 109.423 30.7895C110.466 27.7522 111.484 24.9354 112.43 22.339C113.449 19.5221 114.468 16.8767 115.463 14.3783C116.457 11.8798 117.427 9.52837 118.373 7.29937C119.247 5.26633 120.144 3.28228 121.066 1.32273C121.236 0.979808 121.6 0.734863 121.988 0.734863H127.227C127.615 0.734863 127.979 0.955313 128.149 1.32273C129.046 3.28228 129.944 5.26633 130.841 7.29937C131.812 9.52837 132.806 11.9043 133.776 14.3783C134.771 16.8767 135.766 19.5221 136.809 22.339C137.755 24.9354 138.773 27.7522 139.816 30.7895C139.938 31.157 139.671 31.5489 139.283 31.5489H133.122ZM124.462 7.71578C124.316 8.15668 124.074 8.76904 123.783 9.55286C123.492 10.3122 123.152 11.2185 122.764 12.2228C122.376 13.227 121.963 14.3538 121.502 15.554C121.042 16.7542 120.556 18.0279 120.071 19.3751H128.804C128.343 18.0279 127.882 16.7542 127.445 15.554C127.009 14.3293 126.596 13.227 126.208 12.2228C125.82 11.2185 125.481 10.3367 125.165 9.55286C124.874 8.74454 124.632 8.15668 124.462 7.71578Z" fill="#FCC705"/>
<path d="M197.208 31.5489C196.966 31.5489 196.747 31.4019 196.674 31.157C196.359 30.2017 196.044 29.2464 195.704 28.2421C195.389 27.3358 195.073 26.454 194.782 25.5477C194.637 25.1313 194.249 24.8619 193.836 24.8619H183.357C182.921 24.8619 182.533 25.1313 182.411 25.5477C182.096 26.454 181.805 27.3358 181.49 28.2421C181.15 29.2464 180.835 30.2017 180.519 31.1325C180.447 31.3529 180.228 31.5244 179.986 31.5244H174.043C173.655 31.5244 173.388 31.1325 173.509 30.7895C174.552 27.7522 175.571 24.9354 176.517 22.339C177.536 19.5221 178.555 16.8767 179.549 14.3783C180.544 11.8798 181.514 9.52837 182.46 7.29937C183.333 5.26633 184.231 3.28228 185.152 1.32273C185.322 0.979808 185.686 0.734863 186.074 0.734863H191.314C191.702 0.734863 192.066 0.955313 192.235 1.32273C193.133 3.28228 194.03 5.26633 194.928 7.29937C195.898 9.52837 196.893 11.9043 197.863 14.3783C198.858 16.8767 199.852 19.5221 200.895 22.339C201.841 24.9354 202.86 27.7522 203.903 30.7895C204.024 31.157 203.757 31.5489 203.369 31.5489H197.208ZM188.548 7.71578C188.403 8.15668 188.16 8.76904 187.869 9.55286C187.578 10.3122 187.239 11.2185 186.85 12.2228C186.462 13.227 186.05 14.3538 185.589 15.554C185.128 16.7542 184.643 18.0279 184.158 19.3751H192.89C192.429 18.0279 191.969 16.7542 191.532 15.554C191.095 14.3293 190.683 13.227 190.295 12.2228C189.907 11.2185 189.567 10.3367 189.252 9.55286C188.961 8.74454 188.718 8.15668 188.548 7.71578Z" fill="#FCC705"/>
<path d="M165.019 31.5489C164.68 31.5489 164.34 31.3529 164.17 31.059C162.278 27.7032 160.241 24.3965 158.058 21.1142C155.777 17.685 153.327 14.4273 150.756 11.3899V30.5936C150.756 31.1325 150.32 31.5734 149.786 31.5734H144.959C144.425 31.5734 143.989 31.1325 143.989 30.5936V1.71464C143.989 1.17576 144.425 0.734863 144.959 0.734863H149.18C149.446 0.734863 149.689 0.832841 149.883 1.0288C150.781 1.95959 151.751 3.06184 152.818 4.33555C153.982 5.75622 155.195 7.27488 156.408 8.89151C157.621 10.5081 158.834 12.1738 160.047 13.9129C161.259 15.652 162.375 17.3176 163.443 18.9097V1.71464C163.443 1.17576 163.879 0.734863 164.413 0.734863H169.288C169.822 0.734863 170.259 1.17576 170.259 1.71464V30.5446C170.259 31.0835 169.822 31.5244 169.288 31.5244H165.019V31.5489Z" fill="#FCC705"/>
<path d="M96.2269 6.07462C93.025 6.07462 90.7206 6.98091 89.2894 8.76901C87.8583 10.5571 87.1548 13.0065 87.1548 16.1173C87.1548 17.636 87.3246 19.0077 87.6885 20.2324C88.0523 21.4571 88.5617 22.5104 89.2652 23.4167C89.9686 24.2985 90.8419 24.9843 91.9092 25.4742C92.9765 25.9641 94.1893 26.209 95.5962 26.209C96.3482 26.209 97.0031 26.1846 97.561 26.1601C98.0947 26.1356 98.5798 26.0621 98.9922 25.9886V16.7297C98.9922 15.9214 99.6471 15.26 100.448 15.26H104.426C105.226 15.26 105.881 15.9214 105.881 16.7297V29.4668C105.881 30.1282 105.444 30.6915 104.838 30.863C104.086 31.0834 103.116 31.3039 101.927 31.5488C100.108 31.9163 97.8521 32.1122 95.1838 32.1122C92.9037 32.1122 90.8176 31.7448 88.9498 31.0345C87.082 30.3241 85.5054 29.2953 84.1712 27.9237C82.8614 26.552 81.8183 24.8863 81.1149 22.9023C80.3872 20.9182 80.0476 18.6403 80.0476 16.0928C80.0476 13.5209 80.4357 11.2429 81.2361 9.2589C82.0366 7.27485 83.1039 5.58473 84.4866 4.21304C85.8692 2.84136 87.4944 1.78809 89.3622 1.07776C91.23 0.367417 93.219 0 95.3294 0C96.7605 0 98.0704 0.0979778 99.2347 0.293933C100.399 0.489889 101.394 0.710339 102.218 0.955283C103.043 1.20023 103.746 1.46967 104.28 1.73911C104.28 1.73911 104.28 1.73911 104.304 1.73911C104.959 2.05753 105.275 2.84135 105.032 3.55169L104.013 6.41754C103.746 7.20136 102.873 7.59328 102.121 7.27485C101.539 7.0299 100.908 6.80945 100.254 6.6135C98.9921 6.24608 97.658 6.07462 96.2269 6.07462Z" fill="url(#paint0_linear_496_9239)"/>
<path d="M133.122 31.5489C132.879 31.5489 132.661 31.4019 132.588 31.157C132.273 30.2017 131.957 29.2464 131.618 28.2421C131.302 27.3358 130.987 26.454 130.696 25.5477C130.55 25.1313 130.162 24.8619 129.75 24.8619H119.271C118.834 24.8619 118.446 25.1313 118.325 25.5477C118.01 26.454 117.718 27.3358 117.403 28.2421C117.063 29.2464 116.748 30.2017 116.433 31.1325C116.36 31.3529 116.142 31.5244 115.899 31.5244H109.956C109.568 31.5244 109.301 31.1325 109.423 30.7895C110.466 27.7522 111.484 24.9354 112.43 22.339C113.449 19.5221 114.468 16.8767 115.463 14.3783C116.457 11.8798 117.427 9.52837 118.373 7.29937C119.247 5.26633 120.144 3.28228 121.066 1.32273C121.236 0.979808 121.6 0.734863 121.988 0.734863H127.227C127.615 0.734863 127.979 0.955313 128.149 1.32273C129.046 3.28228 129.944 5.26633 130.841 7.29937C131.812 9.52837 132.806 11.9043 133.776 14.3783C134.771 16.8767 135.766 19.5221 136.809 22.339C137.755 24.9354 138.773 27.7522 139.816 30.7895C139.938 31.157 139.671 31.5489 139.283 31.5489H133.122ZM124.462 7.71578C124.316 8.15668 124.074 8.76904 123.783 9.55286C123.492 10.3122 123.152 11.2185 122.764 12.2228C122.376 13.227 121.963 14.3538 121.502 15.554C121.042 16.7542 120.556 18.0279 120.071 19.3751H128.804C128.343 18.0279 127.882 16.7542 127.445 15.554C127.009 14.3293 126.596 13.227 126.208 12.2228C125.82 11.2185 125.481 10.3367 125.165 9.55286C124.874 8.74454 124.632 8.15668 124.462 7.71578Z" fill="url(#paint1_linear_496_9239)"/>
<path d="M197.208 31.5489C196.966 31.5489 196.747 31.4019 196.674 31.157C196.359 30.2017 196.044 29.2464 195.704 28.2421C195.389 27.3358 195.073 26.454 194.782 25.5477C194.637 25.1313 194.249 24.8619 193.836 24.8619H183.357C182.921 24.8619 182.533 25.1313 182.411 25.5477C182.096 26.454 181.805 27.3358 181.49 28.2421C181.15 29.2464 180.835 30.2017 180.519 31.1325C180.447 31.3529 180.228 31.5244 179.986 31.5244H174.043C173.655 31.5244 173.388 31.1325 173.509 30.7895C174.552 27.7522 175.571 24.9354 176.517 22.339C177.536 19.5221 178.555 16.8767 179.549 14.3783C180.544 11.8798 181.514 9.52837 182.46 7.29937C183.333 5.26633 184.231 3.28228 185.152 1.32273C185.322 0.979808 185.686 0.734863 186.074 0.734863H191.314C191.702 0.734863 192.066 0.955313 192.235 1.32273C193.133 3.28228 194.03 5.26633 194.928 7.29937C195.898 9.52837 196.893 11.9043 197.863 14.3783C198.858 16.8767 199.852 19.5221 200.895 22.339C201.841 24.9354 202.86 27.7522 203.903 30.7895C204.024 31.157 203.757 31.5489 203.369 31.5489H197.208ZM188.548 7.71578C188.403 8.15668 188.16 8.76904 187.869 9.55286C187.578 10.3122 187.239 11.2185 186.85 12.2228C186.462 13.227 186.05 14.3538 185.589 15.554C185.128 16.7542 184.643 18.0279 184.158 19.3751H192.89C192.429 18.0279 191.969 16.7542 191.532 15.554C191.095 14.3293 190.683 13.227 190.295 12.2228C189.907 11.2185 189.567 10.3367 189.252 9.55286C188.961 8.74454 188.718 8.15668 188.548 7.71578Z" fill="url(#paint2_linear_496_9239)"/>
<path d="M165.019 31.5489C164.68 31.5489 164.34 31.3529 164.17 31.059C162.278 27.7032 160.241 24.3965 158.058 21.1142C155.777 17.685 153.327 14.4273 150.756 11.3899V30.5936C150.756 31.1325 150.32 31.5734 149.786 31.5734H144.959C144.425 31.5734 143.989 31.1325 143.989 30.5936V1.71464C143.989 1.17576 144.425 0.734863 144.959 0.734863H149.18C149.446 0.734863 149.689 0.832841 149.883 1.0288C150.781 1.95959 151.751 3.06184 152.818 4.33555C153.982 5.75622 155.195 7.27488 156.408 8.89151C157.621 10.5081 158.834 12.1738 160.047 13.9129C161.259 15.652 162.375 17.3176 163.443 18.9097V1.71464C163.443 1.17576 163.879 0.734863 164.413 0.734863H169.288C169.822 0.734863 170.259 1.17576 170.259 1.71464V30.5446C170.259 31.0835 169.822 31.5244 169.288 31.5244H165.019V31.5489Z" fill="url(#paint3_linear_496_9239)"/>
<path d="M81.3574 39.2402C81.3574 38.2604 82.1094 37.4766 83.0797 37.4766H89.3864C90.3567 37.4766 91.1087 38.2359 91.1087 39.2402V48.94C93.4616 48.1806 95.7902 47.4703 99.2347 47.4703C108.234 47.4703 114.371 52.957 114.371 63.6856C114.371 74.3652 108.307 79.8274 96.4452 79.8274C90.9631 79.8274 84.3168 78.3823 81.3332 76.6187V39.2402H81.3574ZM91.1087 72.3322C92.4428 72.6751 94.6987 72.969 97.0516 72.969C102.437 72.969 104.329 70.1032 104.329 63.7101C104.329 57.2436 102.437 54.3777 97.2214 54.3777C95.7902 54.3777 93.4616 54.7941 91.1087 55.5535V72.3322Z" fill="url(#paint4_linear_496_9239)"/>
<path d="M119.344 40.7592C119.344 38.7262 120.508 37.5015 122.521 37.5015H126.039C128.052 37.5015 129.143 38.7262 129.143 40.7592V42.9147C129.143 44.9478 128.052 46.1725 126.039 46.1725H122.521C120.508 46.1725 119.344 44.9478 119.344 42.9147V40.7592ZM121.139 79.6074C120.144 79.6074 119.392 78.8481 119.392 77.8683V50.8509C119.392 49.8467 120.144 49.0873 121.139 49.0873H127.445C128.416 49.0873 129.168 49.8467 129.168 50.8509V77.8438C129.168 78.8481 128.416 79.5829 127.445 79.5829H121.139V79.6074Z" fill="url(#paint5_linear_496_9239)"/>
<path d="M146.244 79.754C138.167 79.754 134.14 75.6879 134.14 66.9189V39.2402C134.14 38.2604 134.868 37.4766 135.863 37.4766H142.169C143.164 37.4766 143.916 38.2359 143.916 39.2402V49.4298H152.09C153.085 49.4298 153.837 50.1892 153.837 51.169V55.0881C153.837 56.0678 153.109 56.8272 152.09 56.8272H143.916V66.8944C143.916 70.8625 145.929 72.969 148.888 72.969C150.368 72.969 151.484 72.6261 152.77 72.6261H153.788C154.783 72.6261 155.511 73.3854 155.511 74.3897V77.427C155.511 78.3088 154.759 78.9946 153.788 79.1661C152.018 79.509 148.864 79.754 146.244 79.754Z" fill="url(#paint6_linear_496_9239)"/>
<path d="M167.033 66.5762C167.421 71.2546 169.434 73.2877 174.043 73.2877C176.396 73.2877 178.482 72.5773 179.428 71.3526C180.156 70.4218 181.15 69.834 182.557 69.834H186.656C187.627 69.834 188.33 70.5933 188.33 71.5731C188.33 77.6477 182.339 79.7297 173.364 79.7297C163.394 79.7297 157.403 74.1205 157.403 63.5879C157.403 53.0798 163.467 47.3726 173.364 47.3726C183.357 47.3726 189.349 52.9328 189.349 63.1715V64.8126C189.349 65.7924 188.621 66.5517 187.675 66.5517H167.033V66.5762ZM166.984 60.5506H179.719C179.549 56.1906 177.536 53.8391 173.364 53.8391C169.337 53.8391 167.202 56.1906 166.984 60.5506Z" fill="url(#paint7_linear_496_9239)"/>
<path d="M195.995 79.7054C195.001 79.7054 194.249 78.9461 194.249 77.9663V39.2651C194.249 38.2853 195.001 37.5015 195.995 37.5015H202.278C203.248 37.5015 204 38.2608 204 39.2651V77.9418C204 78.9461 203.248 79.6809 202.278 79.6809H195.995V79.7054Z" fill="url(#paint8_linear_496_9239)"/>
<defs>
<linearGradient id="paint0_linear_496_9239" x1="103.949" y1="45.8574" x2="182.556" y2="-8.22413" gradientUnits="userSpaceOnUse">
<stop stop-color="#FFAF00"/>
<stop offset="0.0742005" stop-color="#FFE448"/>
<stop offset="0.1775" stop-color="#FFEE5E"/>
<stop offset="0.3818" stop-color="#FFBF00"/>
<stop offset="0.4883" stop-color="#FFAF00"/>
<stop offset="0.5543" stop-color="#FFB200"/>
<stop offset="0.6655" stop-color="#FFE400"/>
<stop offset="0.8222" stop-color="#FFCB00"/>
<stop offset="1" stop-color="#FFE400"/>
</linearGradient>
<linearGradient id="paint1_linear_496_9239" x1="103.949" y1="45.8574" x2="182.556" y2="-8.22411" gradientUnits="userSpaceOnUse">
<stop stop-color="#FFAF00"/>
<stop offset="0.0742005" stop-color="#FFE448"/>
<stop offset="0.1775" stop-color="#FFEE5E"/>
<stop offset="0.3818" stop-color="#FFBF00"/>
<stop offset="0.4883" stop-color="#FFAF00"/>
<stop offset="0.5543" stop-color="#FFB200"/>
<stop offset="0.6655" stop-color="#FFE400"/>
<stop offset="0.8222" stop-color="#FFCB00"/>
<stop offset="1" stop-color="#FFE400"/>
</linearGradient>
<linearGradient id="paint2_linear_496_9239" x1="103.949" y1="45.8574" x2="182.556" y2="-8.2241" gradientUnits="userSpaceOnUse">
<stop stop-color="#FFAF00"/>
<stop offset="0.0742005" stop-color="#FFE448"/>
<stop offset="0.1775" stop-color="#FFEE5E"/>
<stop offset="0.3818" stop-color="#FFBF00"/>
<stop offset="0.4883" stop-color="#FFAF00"/>
<stop offset="0.5543" stop-color="#FFB200"/>
<stop offset="0.6655" stop-color="#FFE400"/>
<stop offset="0.8222" stop-color="#FFCB00"/>
<stop offset="1" stop-color="#FFE400"/>
</linearGradient>
<linearGradient id="paint3_linear_496_9239" x1="103.949" y1="45.8574" x2="182.556" y2="-8.22413" gradientUnits="userSpaceOnUse">
<stop stop-color="#FFAF00"/>
<stop offset="0.0742005" stop-color="#FFE448"/>
<stop offset="0.1775" stop-color="#FFEE5E"/>
<stop offset="0.3818" stop-color="#FFBF00"/>
<stop offset="0.4883" stop-color="#FFAF00"/>
<stop offset="0.5543" stop-color="#FFB200"/>
<stop offset="0.6655" stop-color="#FFE400"/>
<stop offset="0.8222" stop-color="#FFCB00"/>
<stop offset="1" stop-color="#FFE400"/>
</linearGradient>
<linearGradient id="paint4_linear_496_9239" x1="142.682" y1="79.8458" x2="142.682" y2="37.4962" gradientUnits="userSpaceOnUse">
<stop stop-color="#00778A"/>
<stop offset="0.0278476" stop-color="#007F90"/>
<stop offset="0.126" stop-color="#0096A0"/>
<stop offset="0.2399" stop-color="#00A7AD"/>
<stop offset="0.3773" stop-color="#00B4B5"/>
<stop offset="0.5624" stop-color="#00BBBB"/>
<stop offset="1" stop-color="#00BDBC"/>
</linearGradient>
<linearGradient id="paint5_linear_496_9239" x1="142.682" y1="79.8462" x2="142.682" y2="37.4966" gradientUnits="userSpaceOnUse">
<stop stop-color="#00778A"/>
<stop offset="0.0278476" stop-color="#007F90"/>
<stop offset="0.126" stop-color="#0096A0"/>
<stop offset="0.2399" stop-color="#00A7AD"/>
<stop offset="0.3773" stop-color="#00B4B5"/>
<stop offset="0.5624" stop-color="#00BBBB"/>
<stop offset="1" stop-color="#00BDBC"/>
</linearGradient>
<linearGradient id="paint6_linear_496_9239" x1="142.682" y1="79.8458" x2="142.682" y2="37.4962" gradientUnits="userSpaceOnUse">
<stop stop-color="#00778A"/>
<stop offset="0.0278476" stop-color="#007F90"/>
<stop offset="0.126" stop-color="#0096A0"/>
<stop offset="0.2399" stop-color="#00A7AD"/>
<stop offset="0.3773" stop-color="#00B4B5"/>
<stop offset="0.5624" stop-color="#00BBBB"/>
<stop offset="1" stop-color="#00BDBC"/>
</linearGradient>
<linearGradient id="paint7_linear_496_9239" x1="142.682" y1="79.8461" x2="142.682" y2="37.4964" gradientUnits="userSpaceOnUse">
<stop stop-color="#00778A"/>
<stop offset="0.0278476" stop-color="#007F90"/>
<stop offset="0.126" stop-color="#0096A0"/>
<stop offset="0.2399" stop-color="#00A7AD"/>
<stop offset="0.3773" stop-color="#00B4B5"/>
<stop offset="0.5624" stop-color="#00BBBB"/>
<stop offset="1" stop-color="#00BDBC"/>
</linearGradient>
<linearGradient id="paint8_linear_496_9239" x1="142.682" y1="79.8462" x2="142.682" y2="37.4966" gradientUnits="userSpaceOnUse">
<stop stop-color="#00778A"/>
<stop offset="0.0278476" stop-color="#007F90"/>
<stop offset="0.126" stop-color="#0096A0"/>
<stop offset="0.2399" stop-color="#00A7AD"/>
<stop offset="0.3773" stop-color="#00B4B5"/>
<stop offset="0.5624" stop-color="#00BBBB"/>
<stop offset="1" stop-color="#00BDBC"/>
</linearGradient>
</defs>
</svg>
